<svg width="166" height="48" viewBox="0 0 166 48" fill="none" xmlns="http://www.w3.org/2000/svg">
<g clip-path="url(#clip0_39_163)">
<path d="M19.661 13.4973C19.661 13.4973 22.9537 8.28064 36.6284 8.48312C50.3031 8.68561 55.5949 8.68561 63.9778 10.2895C72.3608 11.8934 82.5466 13.8011 91.1311 14.7016C99.7155 15.6021 113.093 12.5968 119.08 12.1918C125.071 11.7922 129.663 11.4885 137.945 14.7975C146.233 18.1066 152.521 22.119 152.521 22.119C152.521 22.119 153.121 23.5258 150.825 22.3215C148.529 21.1172 143.539 18.7087 140.941 18.1066C138.348 17.5044 136.848 18.405 138.444 19.7105C140.04 21.016 141.837 22.4174 140.84 22.2202C139.844 22.0178 137.945 20.4139 136.45 19.3108C134.955 18.2078 134.053 17.1048 134.053 17.1048L128.263 15.5009C128.263 15.5009 129.759 16.6039 130.957 18.0107C132.155 19.4174 132.357 21.0213 132.357 21.0213C132.357 21.0213 126.466 14.6004 120.479 15.2025C114.488 15.8046 111.195 20.8188 111.195 20.8188C111.195 20.8188 110.994 19.2149 112.293 17.9094C113.592 16.6039 115.485 14.7975 115.485 14.7975C115.485 14.7975 107.399 16.4014 96.4175 16.3002C85.4364 16.1989 77.0534 12.6874 62.4773 11.984C47.9012 11.2806 41.5172 12.4849 41.5172 12.4849C41.5172 12.4849 44.8099 13.8917 46.4059 16.1989C48.0019 18.5062 48.0019 19.913 48.0019 19.913C48.0019 19.913 43.6116 14.2966 39.7144 13.7957C35.8225 13.2948 31.3314 14.7975 29.5339 16.9076C27.7364 19.0178 27.0365 19.9183 27.0365 19.9183L18.8497 20.0195C18.8497 20.0195 21.1456 17.1101 23.1446 16.508C25.1436 15.9059 28.3356 16.2096 28.3356 16.2096L29.6347 15.0053L25.7428 14.7069C25.7428 14.7069 25.3451 12.7993 23.4469 12.7993C21.5486 12.7993 19.6557 13.5027 19.6557 13.5027L19.661 13.4973Z" fill="#231F20"/>
<path d="M18.4787 14.8721C18.3726 14.8721 18.3461 14.7282 18.4415 14.6856C19.1574 14.3979 20.6049 13.897 21.4904 14.1794C22.6993 14.5631 23.1129 15.5329 22.5296 15.9645C21.9464 16.3961 20.4829 16.9929 19.3323 17.9147C18.187 18.8366 17.3599 19.7105 17.3599 19.7105C17.3599 19.7105 17.9537 17.8508 18.9824 17.1261C20.0057 16.4014 21.2783 15.4796 20.6314 15.1599C20.186 14.9361 19.099 14.8828 18.4734 14.8721H18.4787Z" fill="#ED1C24"/>
<path d="M50.3085 13.3961C50.3085 13.3961 62.0849 13.0977 69.6726 14.3979C77.2602 15.7034 83.2465 17.206 94.5299 17.8082C101.593 18.1865 109.302 17.206 109.302 17.206C109.302 17.206 101.115 20.2167 95.9244 20.5151C90.7334 20.8135 69.4711 20.8135 69.4711 20.8135L69.1742 19.0071C69.1742 19.0071 63.4848 13.7904 50.3085 13.3908V13.3961Z" fill="#ED1C24"/>
<path d="M107.552 9.00533C103.82 7.41208 99.0634 4.69449 99.0634 4.69449L99.8111 3.10124C99.8111 3.10124 92.531 0.191828 80.8658 -1.23237e-06C69.2007 -0.186502 48.6754 7.78508 48.6754 7.78508C48.6754 7.78508 57.631 7.88099 64.0734 9.28774C73.766 11.4032 82.9232 12.6661 93.4642 13.2256C104.011 13.7904 112.871 11.8188 112.871 11.8188C112.871 11.8188 111.285 10.5986 107.552 9.00533ZM102.982 11.6323C97.0114 11.3499 92.1598 12.3837 78.0662 10.5986C63.9779 8.81883 62.1115 7.68916 60.9927 7.68916C59.8739 7.68916 57.3553 7.03375 61.7404 6.1865C61.7404 6.1865 74.7098 2.24867 83.4799 2.62167C92.2499 2.99467 97.5682 6.27709 100.553 7.77975C103.539 9.28241 106.153 10.6892 106.153 10.6892C106.153 10.6892 108.952 11.9094 102.982 11.627V11.6323Z" fill="#231F20"/>
<path d="M12.9536 24.8899L11.0129 34.3321H10.6895L8.74354 24.8899H1.61721L0 44.7442V47.675H6.80289V37.2575H7.12633L8.58447 44.4192H13.118L14.5761 37.2575H14.8995V47.675H21.7024V44.7442L20.0799 24.8899H12.9536Z" fill="#231F20"/>
<path d="M29.9635 34.167H29.6347L28.341 24.8899H22.0259V27.8206L26.5594 41.1634V47.675H32.8744V41.1634L37.4132 27.8206V24.8899H31.0929L29.9635 34.167Z" fill="#231F20"/>
<path d="M58.3044 36.6394C57.7636 36.2718 57.1167 36.0426 56.3585 35.9574V35.6323C56.9841 35.5258 57.525 35.3073 57.9757 34.9822C59.0574 34.2469 59.5929 33.0533 59.5929 31.4014V29.7762C59.5929 28.3002 59.1475 27.1172 58.2673 26.2274C57.3818 25.3375 56.2047 24.8952 54.736 24.8952H46.1515V47.6803H55.3828C56.8516 47.6803 58.0287 47.238 58.9142 46.3481C59.7997 45.4583 60.2398 44.2753 60.2398 42.7993V40.5186C60.2398 38.7389 59.5929 37.4494 58.2938 36.6448L58.3044 36.6394ZM52.3128 30.0959H53.4475V33.5115H52.3128V30.0959ZM54.0944 42.4636H52.3128V38.7229H54.0944V42.4636Z" fill="#231F20"/>
<path d="M75.696 38.0089C76.3005 37.2469 76.6027 36.3464 76.6027 35.3073V29.7762C76.6027 28.3002 76.1574 27.1172 75.2772 26.2274C74.3917 25.3375 73.2146 24.8952 71.7458 24.8952H62.6788V47.6803H68.9939V40.1936H69.4817L71.0989 47.6803H77.0906V44.7496L74.8212 38.8881C75.1446 38.6696 75.4362 38.3766 75.696 38.0089ZM70.2877 34.6572H68.8295V30.5861H70.2877V34.6572Z" fill="#231F20"/>
<path d="M88.7504 24.5648H84.0525C82.5837 24.5648 81.4066 25.0124 80.5211 25.897C79.6356 26.7869 79.1956 27.9698 79.1956 29.4458V43.119C79.1956 44.595 79.6356 45.778 80.5211 46.6678C81.4066 47.5577 82.5837 48 84.0525 48H88.7504C90.2191 48 91.3962 47.5577 92.2817 46.6678C93.1672 45.778 93.6073 44.595 93.6073 43.119V29.4458C93.6073 27.9698 93.1619 26.7869 92.2817 25.897C91.3962 25.0071 90.2191 24.5648 88.7504 24.5648ZM87.2922 42.1439H85.5106V30.4263H87.2922V42.1439Z" fill="#231F20"/>
<path d="M106.078 24.8899L102.515 44.7442V47.675H108.671L108.995 43.9289H111.911L112.234 47.675H118.39V44.7442L114.827 24.8899H106.084H106.078ZM109.642 38.3979L110.288 31.0764H110.612L111.259 38.3979H109.642Z" fill="#231F20"/>
<path d="M127.781 42.1439H125.999V24.8899H119.684V43.119C119.684 44.595 120.124 45.778 121.01 46.6678C121.895 47.5577 123.072 48 124.541 48H129.239C130.708 48 131.885 47.5577 132.77 46.6678C133.656 45.778 134.096 44.595 134.096 43.119V24.8899H127.781V42.1439Z" fill="#231F20"/>
<path d="M135.877 31.0764H139.923V47.675H146.238V31.0764H148.995L150.289 29.7709V24.8899H135.877V31.0764Z" fill="#231F20"/>
<path d="M164.669 25.897C163.784 25.0071 162.607 24.5648 161.138 24.5648H156.44C154.971 24.5648 153.794 25.0124 152.909 25.897C152.023 26.7869 151.583 27.9698 151.583 29.4458V43.119C151.583 44.595 152.023 45.778 152.909 46.6678C153.794 47.5577 154.971 48 156.44 48H161.138C162.607 48 163.784 47.5577 164.669 46.6678C165.555 45.778 165.995 44.595 165.995 43.119V29.4458C165.995 27.9698 165.549 26.7869 164.669 25.897ZM155.65 29.4085H157.097L157.485 29.7975V31.444H158.015L158.253 30.2824C158.333 29.9254 158.481 29.659 158.704 29.4831C158.927 29.3073 159.261 29.2167 159.696 29.2167H160.947C161.382 29.2167 161.732 29.3499 161.997 29.611C162.262 29.8774 162.389 30.2291 162.389 30.6661V33.3304H160.56V31.103H159.934L159.696 32.2646C159.616 32.627 159.468 32.8934 159.245 33.0693C159.022 33.2451 158.693 33.3304 158.248 33.3304H157.092C156.657 33.3304 156.307 33.1972 156.042 32.9361C155.777 32.6696 155.65 32.3179 155.65 31.881V29.4139V29.4085ZM162.394 40.881L160.178 41.3659V41.5098H162.394V43.3961H155.65V40.6838C155.65 40.2469 155.782 39.8952 156.042 39.6288C156.307 39.3623 156.657 39.2291 157.092 39.2291H158.731C159.038 39.2291 159.303 39.3197 159.531 39.5009C159.643 39.5808 159.727 39.6661 159.791 39.762L161.525 39.0853H162.394V40.8757V40.881ZM162.49 36.9591C162.49 37.3961 162.357 37.7478 162.098 38.0142C161.832 38.2806 161.482 38.4085 161.048 38.4085H155.65V36.5222H160.756V35.9893H155.65V34.103H161.048C161.482 34.103 161.832 34.2362 162.098 34.5027C162.363 34.7691 162.49 35.1208 162.49 35.5577V36.9591Z" fill="#231F20"/>
<path d="M158.54 41.1261H157.336V41.5631H158.54V41.1261Z" fill="#231F20"/>
</g>
<defs>
<clipPath id="clip0_39_163">
<rect width="166" height="48" fill="white"/>
</clipPath>
</defs>
</svg>
